HIERARCHY
ROOT newVegas:Hips
{
	OFFSET 0.000000 96.330055 9.825774
	CHANNELS 6 Xposition Yposition Zposition Xrotation Yrotation Zrotation
	JOINT newVegas:Pelvis
	{
		OFFSET 0.000000 0.000000 0.000000
		CHANNELS 3 Xrotation Yrotation Zrotation
		JOINT newVegas:LeftUpLeg
		{
			OFFSET 18.735231 -5.666687 -4.541196
			CHANNELS 3 Xrotation Yrotation Zrotation
			JOINT newVegas:LeftLeg
			{
				OFFSET 2.165257 -31.864662 0.493051
				CHANNELS 3 Xrotation Yrotation Zrotation
				JOINT newVegas:LeftFoot
				{
					OFFSET 2.207560 -31.861769 -4.336291
					CHANNELS 3 Xrotation Yrotation Zrotation
					JOINT newVegas:LeftToeBase
					{
						OFFSET 0.942982 -26.721954 15.023476
						CHANNELS 3 Xrotation Yrotation Zrotation
						End Site
						{
							OFFSET 0.000000 30.670130 0.000000
						}
					}
				}
				JOINT newVegas:Left_PantLeg
				{
					OFFSET 1.281483 -8.977982 -1.108870
					CHANNELS 3 Xrotation Yrotation Zrotation
					End Site
					{
						OFFSET 0.000000 20.683853 0.000000
					}
				}
			}
		}
		JOINT newVegas:RightUpLeg
		{
			OFFSET -18.735231 -5.666687 -4.541196
			CHANNELS 3 Xrotation Yrotation Zrotation
			JOINT newVegas:RightLeg
			{
				OFFSET -2.167511 -31.864510 0.493069
				CHANNELS 3 Xrotation Yrotation Zrotation
				JOINT newVegas:RightFoot
				{
					OFFSET -2.205305 -31.861921 -4.336310
					CHANNELS 3 Xrotation Yrotation Zrotation
					JOINT newVegas:RightToeBase
					{
						OFFSET -0.942982 -26.721954 15.023476
						CHANNELS 3 Xrotation Yrotation Zrotation
						End Site
						{
							OFFSET 0.000000 30.670130 0.000000
						}
					}
				}
				JOINT newVegas:Right_PantLeg
				{
					OFFSET -1.279257 -8.978161 -1.108887
					CHANNELS 3 Xrotation Yrotation Zrotation
					End Site
					{
						OFFSET 0.000000 20.683781 0.000000
					}
				}
			}
		}
	}
	JOINT newVegas:Spine
	{
		OFFSET 0.000000 10.200043 -0.299546
		CHANNELS 3 Xrotation Yrotation Zrotation
		JOINT newVegas:Spine1
		{
			OFFSET 0.000000 11.900047 -1.516603
			CHANNELS 3 Xrotation Yrotation Zrotation
			JOINT newVegas:Spine2
			{
				OFFSET 0.000000 13.600052 -2.842519
				CHANNELS 3 Xrotation Yrotation Zrotation
				JOINT newVegas:Neck
				{
					OFFSET 0.000000 9.624100 -2.890091
					CHANNELS 3 Xrotation Yrotation Zrotation
					JOINT newVegas:Head
					{
						OFFSET 0.000000 14.068771 -1.351861
						CHANNELS 3 Xrotation Yrotation Zrotation
						JOINT newVegas:Hair_Back
						{
							OFFSET 0.000000 3.231888 -17.524775
							CHANNELS 3 Xrotation Yrotation Zrotation
							End Site
							{
								OFFSET 0.000000 19.849899 0.000000
							}
						}
						JOINT newVegas:Hair_Front
						{
							OFFSET 0.000000 31.260452 4.573765
							CHANNELS 3 Xrotation Yrotation Zrotation
							JOINT newVegas:Hair_Front1
							{
								OFFSET -0.000000 2.284073 11.993284
								CHANNELS 3 Xrotation Yrotation Zrotation
								JOINT newVegas:Hair_Front2
								{
									OFFSET -0.000000 2.284073 11.993282
									CHANNELS 3 Xrotation Yrotation Zrotation
									End Site
									{
										OFFSET 0.000000 12.208847 0.000000
									}
								}
							}
						}
						JOINT newVegas:Jowel
						{
							OFFSET 0.000000 -7.458237 6.864121
							CHANNELS 3 Xrotation Yrotation Zrotation
							End Site
							{
								OFFSET 0.000000 19.849899 0.000000
							}
						}
					}
				}
				JOINT newVegas:LeftShoulder
				{
					OFFSET 15.263037 10.923431 -0.547705
					CHANNELS 3 Xrotation Yrotation Zrotation
					JOINT newVegas:LeftArm
					{
						OFFSET 25.438639 -2.830658 -13.032501
						CHANNELS 3 Xrotation Yrotation Zrotation
						JOINT newVegas:LeftForeArm
						{
							OFFSET 29.593842 0.000000 -4.673203
							CHANNELS 3 Xrotation Yrotation Zrotation
							JOINT newVegas:LeftHand
							{
								OFFSET 27.832886 0.000000 0.954267
								CHANNELS 3 Xrotation Yrotation Zrotation
								JOINT newVegas:LeftHandThumb1
								{
									OFFSET 4.767456 -2.676666 6.397403
									CHANNELS 3 Xrotation Yrotation Zrotation
									JOINT newVegas:LeftHandThumb2
									{
										OFFSET 6.625809 -0.223526 2.471421
										CHANNELS 3 Xrotation Yrotation Zrotation
										JOINT newVegas:LeftHandThumb3
										{
											OFFSET 6.481201 0.059357 1.536795
											CHANNELS 3 Xrotation Yrotation Zrotation
											End Site
											{
												OFFSET 0.000000 6.661179 0.000000
											}
										}
									}
								}
								JOINT newVegas:LeftHandIndex1
								{
									OFFSET 18.761932 0.178406 4.531118
									CHANNELS 3 Xrotation Yrotation Zrotation
									JOINT newVegas:LeftHandIndex2
									{
										OFFSET 3.171219 -0.350479 0.097670
										CHANNELS 3 Xrotation Yrotation Zrotation
										JOINT newVegas:LeftHandIndex3
										{
											OFFSET 3.807625 -0.034592 0.457391
											CHANNELS 3 Xrotation Yrotation Zrotation
											End Site
											{
												OFFSET 0.000000 3.835159 0.000000
											}
										}
									}
								}
								JOINT newVegas:LeftHandMiddle1
								{
									OFFSET 18.461426 0.243439 -0.695649
									CHANNELS 3 Xrotation Yrotation Zrotation
									JOINT newVegas:LeftHandMiddle2
									{
										OFFSET 3.308960 -0.304459 -0.112251
										CHANNELS 3 Xrotation Yrotation Zrotation
										JOINT newVegas:LeftHandMiddle3
										{
											OFFSET 4.584320 0.057678 -0.330443
											CHANNELS 3 Xrotation Yrotation Zrotation
											End Site
											{
												OFFSET 0.000000 4.596573 0.000000
											}
										}
									}
								}
								JOINT newVegas:LeftHandRing1
								{
									OFFSET 17.563904 -0.015564 -4.860666
									CHANNELS 3 Xrotation Yrotation Zrotation
									JOINT newVegas:LeftHandRing2
									{
										OFFSET 2.582436 -0.710159 -0.544994
										CHANNELS 3 Xrotation Yrotation Zrotation
										JOINT newVegas:LeftHandRing3
										{
											OFFSET 3.050346 0.119141 -0.884829
											CHANNELS 3 Xrotation Yrotation Zrotation
											End Site
											{
												OFFSET 0.000000 3.178314 0.000000
											}
										}
									}
								}
								JOINT newVegas:LeftHandPinky1
								{
									OFFSET 15.713013 -1.058273 -8.049927
									CHANNELS 3 Xrotation Yrotation Zrotation
									JOINT newVegas:LeftHandPinky2
									{
										OFFSET 2.262558 -0.308899 -1.109793
										CHANNELS 3 Xrotation Yrotation Zrotation
										JOINT newVegas:LeftHandPinky3
										{
											OFFSET 2.240669 -0.150864 -1.296448
											CHANNELS 3 Xrotation Yrotation Zrotation
											End Site
											{
												OFFSET 0.000000 2.593094 0.000000
											}
										}
									}
								}
							}
							JOINT newVegas:Left_Sleeve
							{
								OFFSET 0.247482 -0.649780 0.586459
								CHANNELS 3 Xrotation Yrotation Zrotation
								End Site
								{
									OFFSET 0.000000 15.991226 0.000000
								}
							}
							JOINT newVegas:Left_CapeC
							{
								OFFSET 15.944374 -8.608810 -6.393338
								CHANNELS 3 Xrotation Yrotation Zrotation
								JOINT newVegas:Left_CapeC1
								{
									OFFSET 0.000000 -8.688515 0.000000
									CHANNELS 3 Xrotation Yrotation Zrotation
									End Site
									{
										OFFSET 0.000000 8.688515 0.000000
									}
								}
							}
						}
						JOINT newVegas:Left_CapeB
						{
							OFFSET 24.694458 -8.608810 -11.066542
							CHANNELS 3 Xrotation Yrotation Zrotation
							JOINT newVegas:Left_CapeB1
							{
								OFFSET 0.000008 -8.688515 0.000000
								CHANNELS 3 Xrotation Yrotation Zrotation
								End Site
								{
									OFFSET 0.000000 8.688515 0.000000
								}
							}
						}
						JOINT newVegas:Left_CapeA
						{
							OFFSET 3.431450 -8.608810 -11.066542
							CHANNELS 3 Xrotation Yrotation Zrotation
							JOINT newVegas:Left_CapeA1
							{
								OFFSET 0.000000 -8.688515 0.000000
								CHANNELS 3 Xrotation Yrotation Zrotation
								End Site
								{
									OFFSET 0.000000 8.688515 0.000000
								}
							}
						}
					}
				}
				JOINT newVegas:RightShoulder
				{
					OFFSET -15.263037 10.923431 -0.547705
					CHANNELS 3 Xrotation Yrotation Zrotation
					JOINT newVegas:RightArm
					{
						OFFSET -25.438639 -2.830658 -13.032501
						CHANNELS 3 Xrotation Yrotation Zrotation
						JOINT newVegas:RightForeArm
						{
							OFFSET -29.593842 0.000000 -4.673203
							CHANNELS 3 Xrotation Yrotation Zrotation
							JOINT newVegas:RightHand
							{
								OFFSET -27.832886 0.000000 0.954267
								CHANNELS 3 Xrotation Yrotation Zrotation
								JOINT newVegas:RightHandThumb1
								{
									OFFSET -4.767456 -2.676666 6.397403
									CHANNELS 3 Xrotation Yrotation Zrotation
									JOINT newVegas:RightHandThumb2
									{
										OFFSET -6.625809 -0.223526 2.471421
										CHANNELS 3 Xrotation Yrotation Zrotation
										JOINT newVegas:RightHandThumb3
										{
											OFFSET -6.481201 0.059357 1.536795
											CHANNELS 3 Xrotation Yrotation Zrotation
											End Site
											{
												OFFSET 0.000000 6.661179 0.000000
											}
										}
									}
								}
								JOINT newVegas:RightHandIndex1
								{
									OFFSET -18.761932 0.178406 4.531118
									CHANNELS 3 Xrotation Yrotation Zrotation
									JOINT newVegas:RightHandIndex2
									{
										OFFSET -3.171219 -0.350479 0.097670
										CHANNELS 3 Xrotation Yrotation Zrotation
										JOINT newVegas:RightHandIndex3
										{
											OFFSET -3.807625 -0.034592 0.457391
											CHANNELS 3 Xrotation Yrotation Zrotation
											End Site
											{
												OFFSET 0.000000 3.835159 0.000000
											}
										}
									}
								}
								JOINT newVegas:RightHandMiddle1
								{
									OFFSET -18.461426 0.243439 -0.695648
									CHANNELS 3 Xrotation Yrotation Zrotation
									JOINT newVegas:RightHandMiddle2
									{
										OFFSET -3.308960 -0.304459 -0.112251
										CHANNELS 3 Xrotation Yrotation Zrotation
										JOINT newVegas:RightHandMiddle3
										{
											OFFSET -4.584320 0.057678 -0.330443
											CHANNELS 3 Xrotation Yrotation Zrotation
											End Site
											{
												OFFSET 0.000000 4.596573 0.000000
											}
										}
									}
								}
								JOINT newVegas:RightHandRing1
								{
									OFFSET -17.563904 -0.015564 -4.860666
									CHANNELS 3 Xrotation Yrotation Zrotation
									JOINT newVegas:RightHandRing2
									{
										OFFSET -2.582436 -0.710159 -0.544992
										CHANNELS 3 Xrotation Yrotation Zrotation
										JOINT newVegas:RightHandRing3
										{
											OFFSET -3.050346 0.119141 -0.884830
											CHANNELS 3 Xrotation Yrotation Zrotation
											End Site
											{
												OFFSET 0.000000 3.178329 0.000000
											}
										}
									}
								}
								JOINT newVegas:RightHandPinky1
								{
									OFFSET -15.713013 -1.058273 -8.049929
									CHANNELS 3 Xrotation Yrotation Zrotation
									JOINT newVegas:RightHandPinky2
									{
										OFFSET -2.262558 -0.308899 -1.109791
										CHANNELS 3 Xrotation Yrotation Zrotation
										JOINT newVegas:RightHandPinky3
										{
											OFFSET -2.240669 -0.150864 -1.296448
											CHANNELS 3 Xrotation Yrotation Zrotation
											End Site
											{
												OFFSET 0.000000 2.593094 0.000000
											}
										}
									}
								}
							}
							JOINT newVegas:Right_CapeC
							{
								OFFSET -15.944374 -8.608810 -6.393338
								CHANNELS 3 Xrotation Yrotation Zrotation
								JOINT newVegas:Right_CapeC1
								{
									OFFSET 0.000000 -8.688515 0.000000
									CHANNELS 3 Xrotation Yrotation Zrotation
									End Site
									{
										OFFSET 0.000000 8.688515 0.000000
									}
								}
							}
							JOINT newVegas:Right_Sleeve
							{
								OFFSET -0.247482 -0.649963 0.586505
								CHANNELS 3 Xrotation Yrotation Zrotation
								End Site
								{
									OFFSET 0.000000 15.991287 0.000000
								}
							}
						}
						JOINT newVegas:Right_CapeA
						{
							OFFSET -3.431450 -8.608810 -11.066542
							CHANNELS 3 Xrotation Yrotation Zrotation
							JOINT newVegas:Right_CapeA1
							{
								OFFSET 0.000000 -8.688515 0.000000
								CHANNELS 3 Xrotation Yrotation Zrotation
								End Site
								{
									OFFSET 0.000000 8.688515 0.000000
								}
							}
						}
						JOINT newVegas:Right_CapeB
						{
							OFFSET -24.694321 -8.608810 -11.066542
							CHANNELS 3 Xrotation Yrotation Zrotation
							JOINT newVegas:Right_CapeB1
							{
								OFFSET -0.000015 -8.688515 0.000002
								CHANNELS 3 Xrotation Yrotation Zrotation
								End Site
								{
									OFFSET 0.000000 8.688515 0.000000
								}
							}
						}
					}
				}
				JOINT newVegas:Left_Collar
				{
					OFFSET 18.625118 8.655487 8.828113
					CHANNELS 3 Xrotation Yrotation Zrotation
					JOINT newVegas:Left_Collar1
					{
						OFFSET 14.783401 10.540359 -1.259481
						CHANNELS 3 Xrotation Yrotation Zrotation
						End Site
						{
							OFFSET 0.000000 18.199844 0.000000
						}
					}
				}
				JOINT newVegas:Collar_Back
				{
					OFFSET 0.000000 15.630692 -20.132616
					CHANNELS 3 Xrotation Yrotation Zrotation
					End Site
					{
						OFFSET 0.000000 22.523010 0.000000
					}
				}
				JOINT newVegas:Left_Peck
				{
					OFFSET 17.239555 -5.132629 25.482586
					CHANNELS 3 Xrotation Yrotation Zrotation
					End Site
					{
						OFFSET 0.000000 22.523026 0.000000
					}
				}
				JOINT newVegas:Right_Peck
				{
					OFFSET -17.239599 -5.132195 25.482594
					CHANNELS 3 Xrotation Yrotation Zrotation
					End Site
					{
						OFFSET 0.000000 22.523018 0.000000
					}
				}
				JOINT newVegas:Right_Collar
				{
					OFFSET -18.625099 8.655807 8.828094
					CHANNELS 3 Xrotation Yrotation Zrotation
					JOINT newVegas:Right_Collar1
					{
						OFFSET -14.783405 10.539993 -1.259501
						CHANNELS 3 Xrotation Yrotation Zrotation
						End Site
						{
							OFFSET 0.000000 18.199646 0.000000
						}
					}
				}
			}
		}
		JOINT newVegas:Belly
		{
			OFFSET 0.000000 -6.540390 9.014252
			CHANNELS 3 Xrotation Yrotation Zrotation
			End Site
			{
				OFFSET 0.000000 11.566666 0.000000
			}
		}
	}
	JOINT newVegas:ElvisFacialAnim_Joint
	{
		OFFSET 1.000000 -95.330055 -8.825774
		CHANNELS 3 Xrotation Yrotation Zrotation
		End Site
		{
			OFFSET 0.000000 35.315800 0.000000
		}
	}
}
MOTION
Frames: 4
Frame Time: 0.016667
1.636291 112.269257 9.406417 -12.492303 -1.420430 -1.402657 -0.000000 -0.000000 -0.000000 -19.096497 -19.757806 2.736019 92.447170 12.325468 -3.059157 27.991451 9.967274 21.038250 0.000000 0.000001 -0.000001 0.000002 -0.000003 -0.000002 -16.906655 23.407388 -10.410834 66.746658 6.586903 -4.560324 31.783210 -0.343836 9.643577 -0.000001 -0.000000 -0.000001 -0.000002 -0.000002 0.000001 -3.024719 -2.106807 2.420388 1.341452 -0.394057 2.093239 1.345712 -0.282894 2.116648 3.783354 -2.088624 2.859697 3.783352 -2.088624 2.859694 -0.000000 -0.000000 0.000001 3.783420 -2.088640 2.859705 3.783354 -2.088604 2.859691 -0.000000 0.000000 -0.000002 -0.000000 -0.000000 0.000001 0.516764 0.363760 -1.548773 -67.994916 2.735909 -6.212717 0.004413 -92.385815 0.004405 38.806734 -15.293277 59.396821 -28.218452 -11.680640 -20.311169 -1.462168 7.967965 5.211618 0.000000 0.000001 -0.000003 -0.396925 3.402259 21.363225 1.103771 5.026468 -6.718186 -0.000002 -0.000001 0.000001 -0.458580 4.737824 18.621973 -0.707631 -2.027751 -8.829677 0.000000 0.000001 0.000002 1.976824 1.830238 26.137375 -6.489143 -2.637369 -21.922930 -0.000001 -0.000000 -0.000001 2.851802 -2.894554 16.392246 -6.235616 -7.030309 -9.991938 -0.000004 -0.000001 0.000003 -0.000000 0.000000 -0.000000 -0.000000 0.000000 -0.000000 -0.000000 0.000000 -0.000000 0.000000 0.000000 0.000000 0.000000 0.000000 0.000000 0.000000 0.000000 0.000000 0.000000 0.000000 0.000000 0.412527 -1.336043 6.758882 -56.868445 0.880406 -3.334652 0.000136 87.547152 -0.000141 18.008060 30.322406 -71.472957 -6.992246 16.007018 13.043434 2.068022 -8.020126 6.199328 0.000001 -0.000001 -0.000002 0.292895 -4.209496 2.657777 1.175030 -5.033119 7.303111 0.000001 -0.000001 0.000002 0.569782 -4.949769 2.867730 -0.580534 2.107501 6.938087 0.000002 0.000000 -0.000000 1.728671 -0.785146 -7.977076 -5.268749 3.395320 17.065887 0.000000 0.000001 -0.000001 0.824276 8.571642 -1.051004 -2.136630 3.834452 3.129728 0.000000 -0.000000 -0.000003 0.000000 0.000001 -0.000000 0.000000 0.000001 -0.000000 0.000000 0.000001 -0.000000 0.000002 0.000000 -0.000000 0.000002 0.000000 -0.000000 0.000002 0.000000 -0.000000 0.000002 0.000000 0.000000 0.000000 -0.000000 -0.000000 0.000001 -0.000000 -0.000000 0.000000 -0.000000 -0.000000 0.000000 -0.000000 -0.000000 0.000000 -0.000000 -0.000000 0.000000 -0.000000 -0.000000 0.000001 -0.000000 -0.000000 -0.000001 0.000000 -0.000000 0.000000 -0.000000 -0.000000 
1.721002 112.586510 9.556570 -11.466340 -1.618280 -1.764741 -0.000000 0.000000 0.000000 -17.650211 -14.090054 3.605585 84.481210 9.831828 -1.104483 22.670118 7.212265 18.693111 0.000000 0.000000 -0.000002 -0.000002 -0.000000 -0.000001 -15.259044 17.918962 -11.058701 57.628212 7.750783 -5.320713 25.682099 2.152847 11.570584 0.000001 0.000001 0.000000 0.000001 -0.000001 0.000002 -4.358157 -2.548729 2.661346 2.021577 -0.426598 2.098098 2.027289 -0.327235 2.120047 3.725912 -2.077168 2.922307 3.725918 -2.077163 2.922302 0.000000 -0.000001 -0.000001 3.725906 -2.077178 2.922306 3.725988 -2.077162 2.922308 -0.000000 -0.000000 -0.000001 0.000000 -0.000001 -0.000001 0.564559 0.109995 -2.570522 -65.974129 2.284468 -6.919169 -0.023350 -89.018586 -0.023402 39.138452 -15.540776 58.376315 -27.570525 -11.279229 -19.972462 -1.432351 7.995834 5.072996 0.000000 -0.000002 0.000001 -0.384524 3.424503 20.786561 1.122631 5.027834 -6.873483 -0.000001 -0.000003 -0.000002 -0.379591 4.561411 17.874402 -0.729059 -2.013512 -9.153211 -0.000000 0.000000 0.000003 2.052111 1.360857 25.199730 -6.615782 -2.550159 -22.441563 0.000000 -0.000002 -0.000000 2.846892 -3.616792 15.285070 -6.569468 -6.927057 -10.632859 -0.000001 0.000000 0.000003 0.000000 -0.000000 -0.000000 0.000000 -0.000000 -0.000000 0.000000 -0.000000 -0.000000 -0.000000 -0.000000 -0.000000 -0.000000 -0.000000 -0.000000 -0.000000 -0.000000 -0.000000 -0.000000 -0.000000 -0.000000 0.561010 -1.704311 9.089358 -54.444589 -1.855434 -2.175547 0.000574 85.005727 -0.000588 18.182049 34.101926 -70.011509 -6.620120 15.556811 12.883219 2.068021 -8.020123 6.199329 0.000001 0.000001 -0.000001 0.300157 -4.215179 2.862871 1.200906 -5.034956 7.515707 0.000000 -0.000001 0.000000 0.563054 -4.801259 3.217698 -0.593293 2.099367 7.126766 -0.000000 0.000001 -0.000003 1.666878 -0.434053 -7.454792 -5.303166 3.375707 17.199922 -0.000001 0.000002 -0.000002 0.626986 9.086855 -0.353486 -2.136627 3.834437 3.129717 -0.000001 0.000001 0.000001 -0.000000 0.000001 -0.000001 -0.000000 0.000001 -0.000001 -0.000000 0.000001 -0.000001 -0.000002 -0.000002 0.000000 -0.000002 -0.000002 0.000000 -0.000002 -0.000002 0.000000 -0.000002 -0.000002 0.000000 0.000000 0.000000 -0.000000 0.000000 0.000000 -0.000000 0.000000 0.000000 -0.000000 0.000000 0.000000 -0.000000 0.000000 0.000000 -0.000000 0.000000 0.000000 -0.000000 0.000000 0.000000 -0.000000 0.000001 0.000000 -0.000000 0.000000 0.000000 0.000000 
1.691910 112.349655 9.712873 -10.242640 -1.782650 -1.903317 -0.000000 -0.000000 0.000000 -16.321154 -7.518081 4.137046 75.929198 3.950928 2.020213 18.010748 6.192390 14.521839 0.000002 0.000002 -0.000001 -0.000002 -0.000001 -0.000001 -13.148189 13.507913 -11.671770 46.748659 6.710807 -4.788100 21.936003 7.657005 13.376503 -0.000001 -0.000000 0.000000 0.000001 -0.000000 -0.000001 -6.293468 -2.981005 2.613019 2.861511 -0.453707 2.096758 2.868642 -0.368867 2.115151 3.651998 -2.037433 2.965120 3.652005 -2.037433 2.965111 -0.000000 -0.000000 -0.000000 3.652063 -2.037458 2.965128 3.651999 -2.037424 2.965122 0.000000 -0.000001 0.000002 -0.000000 -0.000000 -0.000000 0.612455 -0.061212 -3.967367 -63.535089 2.060224 -8.294958 0.001206 -85.552327 0.001235 38.596590 -15.685811 56.787412 -26.893352 -10.851867 -19.626373 -1.400895 8.025282 4.926673 -0.000001 0.000002 0.000000 -0.371146 3.447908 20.175662 1.142700 5.029244 -7.038658 -0.000002 -0.000001 0.000003 -0.298128 4.359779 17.072025 -0.752520 -1.997718 -9.508317 -0.000000 0.000000 0.000001 2.119289 0.830459 24.184225 -6.755125 -2.452223 -23.015873 0.000001 -0.000002 -0.000001 2.812656 -4.429827 14.077153 -6.938799 -6.808047 -11.343854 0.000001 -0.000000 -0.000002 -0.000001 -0.000000 0.000002 -0.000001 -0.000000 0.000002 -0.000001 -0.000000 0.000002 -0.000000 -0.000000 -0.000001 -0.000000 -0.000000 -0.000001 -0.000000 -0.000000 -0.000001 -0.000000 -0.000000 -0.000001 0.739613 -2.066470 11.589527 -51.312841 -5.088531 -0.636441 0.000063 82.388665 -0.000052 17.331559 37.661386 -67.381483 -6.231348 15.082012 12.720435 2.068021 -8.020123 6.199328 -0.000000 -0.000001 0.000001 0.307833 -4.221131 3.078600 1.228123 -5.036782 7.739317 0.000000 0.000000 0.000001 0.550840 -4.619569 3.610036 -0.616362 2.084611 7.468833 0.000000 0.000001 -0.000003 1.584109 -0.006970 -6.851634 -5.426665 3.304325 17.682098 0.000000 0.000001 0.000001 0.376012 9.711870 0.466148 -2.413791 3.783131 3.634597 0.000000 -0.000000 -0.000003 -0.000000 0.000000 0.000003 -0.000000 0.000000 0.000003 -0.000000 0.000000 0.000002 -0.000001 -0.000003 0.000002 -0.000001 -0.000003 0.000002 -0.000001 -0.000003 0.000002 -0.000001 -0.000003 0.000002 -0.000002 0.000000 -0.000000 -0.000002 0.000000 -0.000000 -0.000002 0.000000 -0.000000 -0.000002 0.000000 -0.000000 -0.000002 0.000000 -0.000000 -0.000002 0.000000 -0.000000 -0.000002 0.000000 -0.000000 0.000001 0.000000 -0.000000 -0.000000 -0.000000 0.000000 
1.633736 111.417358 9.831083 -8.915922 -1.865159 -1.819299 -0.000001 -0.000000 -0.000000 -15.026092 -2.307192 4.864526 66.408399 1.428885 4.192612 15.466856 1.127261 9.992362 0.000002 -0.000001 -0.000000 0.000002 0.000000 0.000000 -10.730562 10.141204 -11.942056 35.050680 6.556580 -3.144927 21.151501 12.007519 16.020625 -0.000000 0.000001 -0.000001 -0.000001 -0.000000 0.000002 -8.629214 -3.381718 2.306514 3.797968 -0.479769 2.056643 3.806290 -0.410128 2.069781 3.562950 -1.968966 2.977664 3.562947 -1.968964 2.977655 0.000000 0.000001 -0.000000 3.562941 -1.968991 2.977674 3.562886 -1.968919 2.977658 0.000000 0.000001 0.000000 0.000000 0.000001 -0.000000 0.663781 -0.192290 -5.684490 -60.769470 2.099801 -10.456371 0.000195 -82.063480 0.000174 37.135510 -15.500201 54.387007 -26.189095 -10.399020 -19.275152 -1.367843 8.056144 4.772969 0.000000 -0.000001 0.000000 -0.356770 3.472425 19.532149 1.163909 5.030666 -7.213266 -0.000000 -0.000000 -0.000003 -0.216806 4.136185 16.219608 -0.777715 -1.980518 -9.891661 -0.000001 0.000001 -0.000002 2.172204 0.247156 23.098957 -6.905238 -2.344356 -23.638866 -0.000001 -0.000001 -0.000001 2.739447 -5.320326 12.778524 -7.338305 -6.673601 -12.115367 0.000000 -0.000001 0.000000 -0.000000 -0.000001 0.000001 -0.000000 -0.000001 0.000001 -0.000000 -0.000001 0.000001 0.000000 -0.000001 -0.000000 0.000000 -0.000001 -0.000000 0.000000 -0.000001 -0.000000 0.000000 -0.000001 -0.000000 0.853343 -2.433700 12.010797 -46.953743 -10.116829 2.956185 -0.000007 79.500356 0.000007 15.215472 40.712149 -63.567949 -5.827184 14.583656 12.556241 2.068022 -8.020122 6.199329 -0.000000 -0.000000 -0.000000 0.315875 -4.227330 3.304475 1.256622 -5.038603 7.973443 -0.000000 0.000000 0.000000 0.532634 -4.409261 4.039963 -0.645959 2.065346 7.910023 -0.000000 0.000000 -0.000000 1.478255 0.485076 -6.177121 -5.601690 3.200765 18.369370 -0.000000 -0.000001 -0.000000 0.068059 10.429166 1.395006 -2.859683 3.695306 4.448067 -0.000000 -0.000000 0.000002 0.000001 0.000003 -0.000000 0.000001 0.000003 -0.000000 0.000001 0.000003 -0.000001 0.000000 -0.000002 0.000001 0.000000 -0.000002 0.000001 0.000000 -0.000002 0.000001 0.000000 -0.000002 0.000001 0.000001 0.000000 0.000000 0.000001 -0.000000 0.000000 0.000001 0.000000 0.000000 0.000001 0.000000 0.000000 0.000001 0.000000 0.000000 0.000001 0.000000 0.000000 0.000001 -0.000000 0.000000 -0.000000 0.000000 0.000000 -0.000000 -0.000000 -0.000000 
